<svg xmlns="http://www.w3.org/2000/svg" version="1.0" preserveAspectRatio="xMidYMid meet" viewBox="0.2 0 5230 2498.55">

<g transform="translate(0.000000,2499.000000) scale(0.100000,-0.100000)" fill="#000000" stroke="none">
<path d="M7047 20568 c-3 -4580 -2 -4472 -43 -4768 -57 -414 -170 -773 -322 -1024 -23 -37 -42 -70 -42 -72 0 -3 -5 -10 -10 -17 -6 -7 -39 -50 -74 -97 -261 -351 -640 -574 -1121 -659 -500 -89 -1052 -29 -1552 170 -170 67 -429 206 -613 328 -87 57 -339 244 -375 277 -11 11 -36 32 -55 48 -158 130 -462 423 -659 636 l-41 45 -26 -30 c-15 -16 -48 -53 -73 -81 -25 -28 -116 -129 -201 -225 -85 -96 -184 -206 -220 -244 -118 -128 -150 -164 -191 -212 -23 -26 -64 -73 -93 -103 -28 -30 -66 -73 -85 -95 -19 -22 -71 -80 -116 -130 -45 -49 -128 -142 -185 -205 -56 -63 -137 -153 -180 -200 -42 -47 -142 -158 -221 -246 -79 -89 -235 -263 -346 -386 l-201 -225 41 -49 c41 -49 79 -91 212 -234 158 -171 424 -425 565 -540 30 -25 61 -51 70 -59 29 -28 196 -158 290 -227 664 -487 1422 -834 2230 -1023 248 -58 325 -72 595 -111 546 -79 1251 -92 1845 -34 335 32 753 106 1020 179 30 8 88 24 128 34 350 95 801 281 1107 456 55 32 116 66 135 77 92 52 359 237 475 331 827 664 1375 1583 1640 2752 65 288 110 582 147 965 l22 225 3 4598 3 4597 -1740 0 -1740 0 -3 -4422z"/>
<path d="M31043 21038 c3 -2879 7 -3995 15 -4108 54 -715 120 -1161 253 -1700 76 -306 241 -801 340 -1018 16 -34 29 -64 29 -66 0 -2 18 -44 41 -93 202 -436 434 -815 718 -1173 41 -52 89 -110 106 -129 16 -19 55 -61 85 -95 98 -110 253 -266 365 -368 61 -54 121 -110 135 -122 134 -125 495 -380 750 -531 125 -74 534 -284 615 -315 28 -10 88 -35 135 -55 116 -50 222 -89 375 -140 208 -70 279 -91 465 -139 492 -128 915 -196 1525 -247 206 -17 1038 -23 1290 -10 1058 57 1965 262 2782 627 141 63 367 177 464 234 27 17 52 30 54 30 7 0 221 133 325 203 391 260 788 617 1105 992 62 73 73 87 171 215 74 97 263 378 336 500 247 414 464 912 613 1405 15 50 36 117 46 150 42 138 123 486 164 710 83 448 134 920 155 1440 6 156 10 1661 10 4003 l0 3752 -1700 0 -1700 0 0 -3848 c0 -2625 -3 -3899 -11 -4008 -43 -648 -182 -1209 -413 -1674 -48 -97 -200 -358 -215 -370 -4 -3 -28 -36 -55 -73 -116 -165 -315 -370 -503 -520 -415 -330 -943 -536 -1583 -618 -208 -26 -686 -37 -895 -20 -947 78 -1660 417 -2171 1031 -485 582 -753 1372 -814 2395 -6 109 -10 1532 -10 3938 l0 3767 -1700 0 -1701 0 4 -3952z"/>
<path d="M13060 22947 l0 -2034 43 -39 c23 -22 83 -74 132 -116 278 -237 406 -347 460 -393 33 -29 159 -137 280 -240 121 -104 247 -212 280 -240 89 -77 415 -356 455 -389 19 -16 64 -55 100 -86 69 -61 401 -345 460 -394 19 -16 64 -55 100 -86 36 -32 146 -127 245 -211 221 -188 282 -240 318 -273 16 -13 47 -40 69 -58 23 -18 46 -38 52 -43 6 -6 103 -90 216 -186 113 -96 212 -182 220 -190 8 -8 35 -30 60 -50 25 -20 56 -47 70 -59 14 -12 79 -68 144 -124 66 -55 156 -133 200 -171 45 -39 110 -95 146 -125 36 -30 70 -60 77 -66 6 -6 67 -58 134 -115 68 -57 159 -136 203 -174 45 -39 110 -95 146 -125 36 -30 67 -57 70 -60 7 -8 197 -170 300 -257 47 -39 94 -80 105 -90 12 -10 50 -43 85 -73 36 -30 67 -57 70 -60 3 -4 82 -71 175 -150 205 -174 378 -322 385 -330 3 -4 111 -96 240 -205 129 -110 271 -231 315 -270 68 -60 531 -457 659 -565 22 -19 151 -129 285 -245 135 -115 284 -243 333 -284 48 -40 88 -78 88 -82 0 -5 -1682 -9 -3860 -9 l-3860 0 0 -1675 0 -1675 7725 0 7725 0 0 1675 0 1675 -3854 0 c-2120 0 -3857 3 -3860 8 -2 4 86 85 197 179 111 95 319 272 462 395 143 123 373 319 510 437 138 117 295 252 350 300 55 48 195 168 310 266 116 98 239 204 275 235 72 63 235 203 411 352 63 53 123 105 134 115 11 10 49 43 85 73 35 30 73 63 85 73 11 10 58 51 105 90 92 78 200 170 295 252 230 199 282 243 314 270 36 29 216 183 276 236 17 15 129 111 250 214 121 104 247 212 280 241 33 29 74 63 90 75 17 13 48 40 70 60 22 20 56 50 75 65 36 30 317 271 336 289 6 5 29 25 52 43 22 18 53 45 69 58 36 33 97 85 318 273 99 84 209 179 245 211 36 31 81 70 100 86 51 42 384 328 460 394 36 31 81 70 100 86 40 33 366 312 455 389 33 28 159 136 280 240 121 103 247 211 280 240 33 29 110 95 171 146 61 52 147 126 192 164 l82 70 0 2039 c0 1906 -1 2038 -17 2025 -61 -50 -830 -708 -968 -828 -55 -48 -208 -179 -340 -291 -132 -112 -242 -207 -245 -210 -7 -8 -182 -158 -385 -330 -93 -79 -172 -146 -175 -150 -3 -3 -34 -30 -70 -60 -35 -30 -73 -63 -85 -73 -11 -10 -58 -51 -105 -90 -109 -92 -294 -250 -300 -257 -3 -3 -34 -30 -70 -60 -35 -30 -80 -69 -100 -87 -19 -17 -69 -59 -110 -94 -88 -73 -273 -231 -280 -239 -3 -3 -34 -30 -70 -60 -36 -30 -101 -86 -146 -125 -44 -38 -135 -117 -203 -174 -67 -57 -128 -109 -134 -115 -7 -6 -41 -36 -77 -66 -36 -30 -101 -86 -146 -125 -44 -38 -139 -119 -210 -180 -71 -60 -142 -122 -159 -136 -16 -15 -129 -111 -250 -214 -121 -104 -247 -212 -280 -241 -33 -29 -73 -63 -90 -75 -16 -13 -37 -30 -45 -38 -8 -8 -107 -94 -220 -190 -113 -96 -210 -180 -216 -186 -6 -5 -29 -25 -52 -43 -22 -18 -53 -45 -69 -58 -15 -14 -53 -46 -83 -72 -106 -91 -345 -297 -356 -307 -6 -5 -29 -25 -52 -43 -22 -18 -53 -45 -69 -58 -36 -33 -97 -85 -318 -273 -99 -84 -209 -179 -245 -211 -36 -31 -81 -70 -100 -86 -59 -49 -391 -333 -460 -394 -36 -31 -81 -70 -100 -86 -19 -16 -100 -84 -178 -152 -128 -110 -146 -122 -160 -109 -10 7 -48 40 -87 72 -38 32 -99 84 -135 115 -81 71 -413 355 -460 394 -19 16 -64 55 -100 86 -64 57 -393 338 -460 394 -19 16 -64 55 -100 86 -36 32 -146 127 -245 211 -221 188 -282 240 -318 273 -16 13 -47 40 -69 58 -23 18 -46 38 -52 43 -19 18 -300 259 -336 289 -19 15 -53 45 -75 65 -22 20 -61 53 -87 74 -26 21 -53 43 -60 50 -7 7 -105 92 -218 188 -113 96 -212 182 -220 190 -8 8 -35 30 -60 50 -25 20 -56 47 -70 59 -14 12 -79 68 -144 124 -66 55 -156 133 -200 171 -45 39 -110 95 -146 125 -36 30 -70 60 -77 66 -6 6 -67 58 -134 115 -68 57 -159 136 -203 174 -45 39 -110 95 -146 125 -36 30 -70 60 -77 66 -6 6 -67 58 -134 115 -68 57 -159 136 -203 174 -45 39 -110 95 -146 125 -36 30 -67 57 -70 60 -7 8 -197 170 -300 257 -47 39 -94 80 -105 90 -12 10 -50 43 -85 73 -36 30 -74 63 -85 73 -11 10 -71 62 -134 115 -197 168 -345 294 -381 326 -19 18 -111 97 -205 176 -93 79 -233 199 -310 265 -76 66 -234 201 -350 299 -115 99 -255 219 -310 267 -177 154 -606 519 -611 519 -2 0 -4 -915 -4 -2033z"/>
<path d="M16465 6834 c-63 -7 -207 -34 -235 -44 -14 -4 -52 -16 -85 -26 -324 -95 -649 -374 -809 -693 -192 -381 -194 -876 -6 -1252 250 -499 769 -792 1354 -766 132 6 300 34 386 64 269 93 438 198 608 378 177 187 287 395 348 660 16 66 19 120 19 305 -1 202 -3 234 -23 310 -75 279 -183 472 -366 655 -204 204 -446 330 -746 390 -74 15 -367 27 -445 19z m357 -565 c297 -71 520 -306 594 -626 25 -104 25 -299 0 -405 -63 -278 -247 -494 -501 -591 -98 -38 -173 -50 -300 -50 -219 1 -415 82 -564 236 -164 168 -241 368 -241 621 0 335 163 616 438 755 93 47 138 60 292 85 48 8 206 -6 282 -25z"/>
<path d="M33885 6814 c-398 -75 -665 -327 -716 -678 -14 -93 -6 -254 16 -341 25 -99 88 -216 151 -280 58 -58 150 -123 239 -167 74 -37 264 -103 400 -138 432 -113 552 -167 605 -270 38 -74 23 -180 -34 -246 -72 -85 -190 -119 -381 -111 -254 11 -497 107 -707 280 -26 21 -52 37 -57 35 -5 -1 -56 -59 -112 -128 -56 -69 -131 -158 -166 -199 -34 -41 -63 -78 -63 -82 0 -27 227 -182 365 -249 275 -133 529 -187 828 -178 319 11 565 107 735 288 129 137 193 313 195 530 3 334 -123 530 -440 685 -109 53 -255 101 -588 195 -323 90 -404 150 -405 303 0 71 17 111 66 159 107 102 339 116 579 36 79 -26 255 -114 334 -167 53 -34 66 -40 77 -29 16 17 284 407 290 422 7 17 -114 101 -241 167 -129 68 -271 118 -416 149 -137 30 -433 37 -554 14z"/>
<path d="M22323 6713 c-23 -54 -62 -145 -86 -203 -25 -58 -52 -121 -60 -140 -9 -19 -57 -132 -107 -250 -50 -118 -101 -240 -115 -270 -13 -30 -90 -210 -170 -400 -181 -428 -193 -456 -214 -505 -10 -22 -35 -80 -56 -130 -20 -49 -59 -139 -85 -200 -27 -60 -57 -132 -68 -160 -11 -27 -36 -86 -55 -130 -19 -44 -48 -113 -65 -153 l-31 -72 301 2 302 3 22 55 c12 30 54 134 93 230 40 96 84 205 99 243 l26 67 573 0 c535 0 573 -1 582 -17 11 -22 185 -447 214 -525 l22 -58 308 0 c169 0 307 1 307 3 0 2 -21 53 -46 113 -25 60 -63 150 -83 199 -21 50 -79 185 -128 300 -50 116 -127 296 -171 400 -45 105 -128 301 -186 438 -59 136 -106 249 -106 252 0 2 -12 30 -26 61 -37 80 -93 211 -116 269 -11 28 -34 84 -53 125 -18 41 -70 163 -115 270 -45 107 -88 208 -96 224 -8 16 -14 35 -14 43 0 10 -52 13 -278 13 l-277 0 -42 -97z m317 -626 c0 -2 23 -59 51 -128 28 -68 84 -205 124 -304 40 -99 95 -235 123 -302 28 -67 48 -124 44 -127 -8 -9 -685 -7 -698 2 -8 5 7 52 48 152 33 80 88 215 123 300 35 85 87 212 115 283 29 70 56 127 61 127 5 0 9 -1 9 -3z"/>
<path d="M18533 6793 c-10 -4 -13 -283 -13 -1349 l0 -1344 298 0 297 0 0 537 0 538 548 3 547 2 0 -540 0 -540 295 0 295 0 0 1345 0 1345 -295 0 -295 0 0 -535 0 -535 -545 0 -545 0 -5 23 c-3 12 -4 253 -3 535 l3 512 -272 0 c-149 0 -277 2 -285 4 -7 3 -19 2 -25 -1z"/>
<path d="M14090 5888 c0 -584 -4 -926 -11 -968 -16 -98 -53 -173 -116 -230 -73 -67 -132 -84 -267 -78 -149 8 -248 55 -387 186 l-79 74 -58 -63 c-32 -35 -91 -100 -130 -144 -39 -44 -97 -108 -128 -143 l-57 -63 84 -83 c206 -201 445 -302 740 -314 292 -11 503 46 690 186 117 88 236 265 274 412 49 185 47 138 52 1163 l4 967 -305 0 -306 0 0 -902z"/>
<path d="M24470 5445 l0 -1344 291 -3 c160 -2 293 -1 295 1 2 2 4 386 4 853 0 558 3 847 10 843 5 -3 41 -47 79 -98 38 -51 100 -132 138 -182 38 -49 156 -205 263 -345 107 -140 200 -262 207 -270 6 -8 55 -73 109 -145 53 -71 115 -153 138 -181 23 -29 113 -147 201 -263 l160 -211 252 0 253 0 0 1345 0 1345 -290 0 -290 0 0 -825 c0 -454 -3 -825 -8 -825 -4 0 -34 36 -67 81 -33 44 -88 117 -123 162 -34 45 -116 152 -181 237 -65 85 -173 227 -240 315 -67 88 -161 212 -208 275 -48 63 -89 117 -93 120 -3 3 -17 21 -30 40 -14 19 -54 73 -90 120 -37 47 -104 133 -149 193 l-84 107 -273 0 -274 0 0 -1345z"/>
<path d="M27550 5445 l0 -1345 293 0 292 0 -3 850 c-1 489 2 850 7 850 4 0 85 -100 178 -222 473 -620 620 -814 640 -838 6 -8 56 -74 110 -146 54 -72 160 -212 237 -312 l139 -182 253 0 254 0 0 1345 0 1345 -292 0 -293 0 3 -812 c1 -447 0 -819 -3 -827 -6 -14 -41 29 -256 312 -67 87 -175 229 -240 315 -66 86 -159 209 -206 272 -48 63 -90 117 -93 120 -4 3 -20 24 -36 46 -33 47 -275 366 -283 374 -4 3 -39 49 -79 103 l-72 97 -275 0 -275 0 0 -1345z"/>
<path d="M30630 5445 l0 -1345 1030 0 1030 0 0 260 0 260 -735 0 -735 0 0 285 0 285 635 0 635 0 0 265 0 265 -635 -2 -635 -3 0 278 0 277 725 0 725 0 0 260 0 260 -1020 0 -1020 0 0 -1345z"/>
<path d="M36950 5445 l0 -1345 295 0 295 0 0 408 0 407 61 65 c111 119 252 260 260 260 4 0 17 -15 28 -34 12 -19 43 -61 69 -94 26 -34 69 -92 95 -129 27 -37 105 -144 173 -238 69 -93 150 -206 181 -250 31 -44 62 -85 67 -92 6 -6 27 -35 46 -63 19 -28 53 -75 75 -103 22 -29 53 -71 69 -94 l29 -43 354 0 354 0 -22 33 c-19 26 -190 257 -216 292 -21 27 -101 134 -204 275 -63 85 -154 209 -204 276 -49 67 -148 202 -220 299 -71 98 -148 201 -171 229 -22 28 -55 73 -73 100 l-33 48 89 92 c49 50 143 147 209 216 141 148 290 303 359 375 28 28 90 94 139 146 49 52 137 142 195 202 l105 107 -360 -1 -359 -1 -70 -77 c-78 -86 -279 -302 -400 -431 -109 -117 -523 -565 -569 -617 -21 -24 -42 -40 -47 -37 -5 3 -9 256 -9 585 l0 579 -295 0 -295 0 0 -1345z"/>
<path d="M39780 5445 l0 -1345 1030 0 1030 0 0 260 0 260 -735 0 -735 0 0 285 0 285 634 0 c499 0 635 3 637 13 2 6 3 126 1 265 l-3 252 -634 -2 -635 -3 0 278 0 277 725 0 725 0 0 260 0 260 -1020 0 -1020 0 0 -1345z"/>
<path d="M42418 6774 c-1 -10 -2 -615 0 -1346 l2 -1328 295 0 295 0 0 404 0 404 338 5 c266 3 352 8 407 20 247 59 416 145 550 283 174 178 257 421 241 706 -8 144 -38 257 -103 388 -40 80 -62 110 -143 191 -133 135 -262 206 -475 261 -77 20 -108 21 -742 25 -621 4 -662 3 -665 -13z m1247 -537 c62 -20 160 -79 192 -115 14 -15 39 -56 56 -92 30 -60 32 -73 32 -170 0 -123 -12 -168 -63 -244 -48 -71 -109 -116 -202 -152 l-75 -28 -297 -4 -298 -4 0 419 0 418 302 -6 c242 -4 313 -9 353 -22z"/>
<path d="M45000 5445 l0 -1345 970 0 970 0 0 265 0 265 -675 0 -675 0 0 1080 0 1080 -295 0 -295 0 0 -1345z"/>
<path d="M47360 5445 l0 -1345 1025 0 1025 0 0 260 0 260 -735 0 -735 0 0 285 0 285 635 0 635 0 0 265 0 265 -635 0 -635 0 0 275 0 275 725 0 725 0 0 260 0 260 -1015 0 -1015 0 0 -1345z"/>
<path d="M49990 5446 l0 -1345 291 -3 c160 -2 293 -1 295 1 2 2 4 197 4 433 l0 428 234 0 235 0 68 -101 c37 -55 97 -145 133 -199 36 -54 134 -202 219 -329 l155 -230 334 -3 c184 -2 338 -1 343 2 7 5 -23 59 -53 95 -9 10 -46 65 -229 335 -54 80 -116 170 -137 200 -21 30 -71 105 -112 165 -41 61 -80 116 -87 123 -28 29 -12 47 85 94 241 117 403 330 453 598 17 90 14 318 -5 406 -71 327 -291 544 -646 638 l-115 30 -732 4 -733 3 0 -1345z m1390 786 c93 -34 110 -45 162 -100 61 -65 77 -98 90 -192 28 -192 -60 -357 -226 -419 -93 -35 -169 -41 -503 -41 l-323 0 0 393 0 392 367 -5 c352 -5 371 -6 433 -28z"/>
<path d="M36570 3215 l0 -255 278 2 277 3 3 253 2 252 -280 0 -280 0 0 -255z"/>
<path d="M37400 3215 l0 -255 275 0 275 0 0 255 0 255 -275 0 -275 0 0 -255z"/>
<path d="M30285 2764 c-369 -65 -617 -269 -707 -580 -20 -67 -23 -102 -23 -234 0 -134 3 -165 23 -230 45 -144 114 -241 234 -331 127 -94 265 -152 548 -229 501 -136 604 -191 625 -334 16 -104 -39 -203 -138 -250 -157 -74 -462 -55 -682 41 -81 36 -228 124 -306 184 -35 26 -67 48 -70 49 -3 0 -37 -39 -76 -87 -39 -49 -116 -142 -171 -207 l-101 -119 47 -39 c297 -248 690 -388 1087 -388 412 0 707 131 876 388 85 130 119 258 119 453 0 264 -74 413 -285 577 -108 83 -330 170 -635 248 -242 62 -400 126 -457 186 -42 44 -53 76 -53 158 0 60 4 73 33 115 123 181 520 160 862 -45 33 -20 71 -43 85 -51 14 -8 33 -21 43 -29 22 -17 27 -12 105 105 26 39 50 75 54 80 5 6 44 61 88 124 90 128 90 125 11 173 -20 12 -38 25 -41 28 -23 26 -216 126 -311 160 -249 90 -562 123 -784 84z"/>
<path d="M36973 2723 c-8 -21 -23 -56 -33 -78 -28 -63 -102 -238 -164 -385 -31 -74 -68 -160 -81 -190 -13 -30 -52 -120 -85 -200 -34 -80 -74 -174 -90 -210 -16 -36 -92 -216 -170 -400 -78 -184 -153 -360 -166 -390 -69 -160 -243 -569 -280 -660 -24 -58 -49 -115 -56 -127 -6 -13 -9 -25 -7 -28 6 -5 589 -8 594 -3 2 2 40 93 85 203 44 110 99 244 121 298 l41 97 573 0 574 0 20 -52 c11 -29 45 -114 76 -188 31 -74 74 -180 95 -235 22 -55 44 -106 48 -113 7 -9 76 -12 313 -10 l305 3 -93 220 c-51 121 -106 249 -122 285 -16 36 -66 153 -111 260 -105 251 -193 458 -229 540 -42 95 -77 177 -186 435 -54 127 -158 372 -232 545 -73 173 -144 339 -156 367 l-22 53 -273 0 -273 0 -16 -37z m321 -763 c13 -36 54 -137 91 -225 36 -88 84 -205 106 -260 23 -55 58 -141 80 -192 21 -51 39 -97 39 -102 0 -8 -114 -11 -356 -11 l-356 0 5 23 c3 12 49 128 102 257 53 129 126 306 161 393 76 187 83 202 94 191 5 -5 20 -38 34 -74z"/>
<path d="M13060 1923 c0 -465 5 -859 10 -913 44 -425 228 -720 545 -874 132 -65 212 -91 337 -110 266 -41 538 -23 758 50 141 47 319 161 416 266 100 109 189 283 234 456 47 181 50 254 50 1124 l0 818 -295 0 -295 0 0 -804 c0 -525 -4 -832 -11 -883 -21 -150 -73 -267 -158 -353 -102 -102 -235 -150 -415 -150 -247 0 -410 92 -505 285 -78 156 -74 109 -78 1058 l-4 847 -294 0 -295 0 0 -817z"/>
<path d="M16210 1395 l0 -1345 295 0 295 0 2 852 3 853 110 -144 c227 -297 271 -355 305 -401 19 -26 85 -112 145 -191 113 -148 343 -449 582 -764 75 -99 142 -186 149 -192 9 -10 76 -13 263 -13 l251 0 0 1345 0 1345 -290 0 -290 0 0 -819 c0 -451 -4 -822 -8 -825 -5 -3 -36 32 -69 77 -34 45 -111 147 -173 227 -94 122 -225 295 -476 625 -25 33 -56 74 -69 90 -31 41 -280 367 -388 509 l-88 116 -274 0 -275 0 0 -1345z"/>
<path d="M19450 1395 l0 -1344 295 -3 295 -3 0 1348 0 1347 -295 0 -295 0 0 -1345z"/>
<path d="M20630 2736 c0 -5 75 -196 128 -326 17 -41 53 -131 80 -200 28 -69 116 -289 197 -490 81 -201 155 -385 165 -410 9 -25 129 -323 265 -662 l248 -618 262 0 263 0 25 62 c13 35 154 385 312 778 158 393 296 735 305 760 10 25 111 277 225 560 114 283 210 523 212 533 5 16 -15 17 -311 17 -244 0 -318 -3 -321 -12 -5 -16 -397 -1072 -424 -1143 -10 -27 -32 -86 -49 -130 -16 -44 -48 -129 -70 -190 -149 -407 -155 -424 -165 -408 -4 6 -45 113 -91 239 -46 126 -119 321 -161 434 -42 113 -85 228 -94 255 -16 44 -329 893 -346 938 -7 16 -32 17 -331 17 -178 0 -324 -2 -324 -4z"/>
<path d="M23860 1397 c0 -739 2 -1346 4 -1348 2 -2 466 -3 1030 -1 l1026 2 0 260 0 260 -735 0 -735 0 0 285 0 285 635 0 635 0 0 265 0 265 -635 0 -635 0 0 275 0 275 725 0 725 0 0 260 0 260 -1020 0 -1020 0 0 -1343z"/>
<path d="M26640 1395 l0 -1345 295 0 295 0 0 430 0 430 238 0 237 -1 286 -427 286 -427 342 -3 c187 -1 341 0 341 3 0 6 -190 287 -364 540 -177 258 -276 404 -276 409 0 3 34 21 75 40 238 110 399 297 467 542 19 68 22 105 22 264 1 166 -2 193 -23 265 -34 115 -64 178 -127 266 -103 142 -248 242 -444 303 -167 53 -216 56 -962 56 l-688 0 0 -1345z m1333 800 c217 -46 321 -171 320 -385 0 -73 -5 -94 -30 -150 -54 -117 -145 -185 -291 -215 -57 -12 -139 -15 -405 -13 l-332 3 -3 388 -2 387 337 0 c256 0 355 -4 406 -15z"/>
<path d="M32270 1395 l0 -1345 295 0 295 0 0 1345 0 1345 -295 0 -295 0 0 -1345z"/>
<path d="M33440 2470 l0 -270 410 0 410 0 0 -1073 c0 -591 2 -1076 4 -1078 2 -2 135 -3 295 -1 l291 3 0 1074 0 1075 410 0 410 0 0 270 0 270 -1115 0 -1115 0 0 -270z"/>
<path d="M38800 2470 l0 -270 410 0 410 0 0 -1073 c0 -591 2 -1076 4 -1078 2 -2 135 -3 295 -1 l291 3 2 1072 3 1072 410 5 410 5 0 268 0 267 -1117 0 -1118 0 0 -270z"/>
<path d="M43030 1395 l0 -1345 965 0 965 0 0 265 0 265 -670 0 -670 0 0 1080 0 1080 -295 0 -295 0 0 -1345z"/>
<path d="M45540 1397 c0 -739 2 -1346 4 -1348 2 -2 135 -3 295 -1 l291 3 0 1344 0 1345 -295 0 -295 0 0 -1343z"/>
<path d="M46970 1395 l0 -1345 290 0 290 0 0 850 c0 468 3 850 8 850 4 0 30 -30 58 -67 28 -38 113 -149 189 -248 75 -99 182 -238 236 -310 145 -192 317 -416 339 -445 11 -14 69 -90 130 -170 60 -80 163 -215 228 -300 l118 -155 252 -3 252 -2 0 1345 0 1345 -290 0 -290 0 -2 -827 -3 -826 -96 124 c-53 68 -140 183 -194 254 -239 315 -301 397 -383 504 -48 62 -103 135 -122 161 -19 27 -86 115 -149 197 -63 81 -160 208 -214 281 l-100 132 -274 0 -273 0 0 -1345z"/>
<path d="M50040 2485 l0 -255 703 -1 c386 -1 708 -1 715 0 19 3 14 -9 -25 -58 -37 -45 -277 -325 -331 -386 -22 -25 -211 -244 -288 -335 -12 -14 -53 -61 -91 -105 -38 -44 -163 -190 -278 -325 -115 -135 -211 -247 -214 -250 -7 -6 -173 -199 -214 -248 l-27 -34 0 -219 0 -219 1125 0 1125 0 0 255 0 255 -740 0 c-407 0 -740 3 -740 8 0 6 53 69 220 262 166 193 317 368 451 524 136 159 255 298 322 376 12 14 47 55 77 90 30 36 72 85 95 110 22 25 65 75 95 110 30 36 73 85 95 110 23 25 60 68 83 96 l42 52 0 221 0 221 -1100 0 -1100 0 0 -255z"/>
</g>
</svg>